<svg width="138" height="356" stroke-linecap="round" stroke-linejoin="round" xmlns="http://www.w3.org/2000/svg" xmlns:xlink="http://www.w3.org/1999/xlink"><pattern id="f" width="12" height="16" patternTransform="translate(0-4)" patternUnits="userSpaceOnUse"><path d="m6 8h6v8h-6zm-6-8h6v8h-6z" fill="#282d0f"/><path d="m7 9h4v6h-4zm-6-8h4v6h-4z" fill="#303c00"/><path d="m6 8 1 1h4l1-1m-12-8 1 1h4l1-1" fill="#454e00"/><path d="m6 16 1-1h4l1 1m-12-8 1-1h4l1 1" fill="#222319"/></pattern><radialGradient id="b" cx="69" cy="229" r="3.5" gradientUnits="userSpaceOnUse"><stop stop-color="#ffd50f"/><stop stop-color="#AD9734" offset="1"/></radialGradient><linearGradient id="d" x1="62" x2="76" y1="274" y2="274" gradientUnits="userSpaceOnUse"><stop stop-color="#645300"/><stop stop-color="#ffe16d" offset=".5"/><stop stop-color="#645300" offset="1"/></linearGradient><linearGradient id="c" x1="69" x2="69" y1="226" y2="209" gradientUnits="userSpaceOnUse"><stop stop-color="#AD9734"/><stop stop-color="#ffd50f" offset="1"/></linearGradient><linearGradient id="e" x2="0" y1="356" y2="351" gradientUnits="userSpaceOnUse"><stop/><stop stop-opacity="0" offset="1"/></linearGradient><path d="m131 356h7s.72-242-0-349c0-4-3-7-7-7zm-124-327c-5 1-7 4-7 7v320h7z" fill="#ac1e19"/><path d="m131 356h-124v-327l122-29c.6-.13 1.1-.2 1.6-.2z" fill="#450"/><path d="m12 356v-328l114-27v355z" fill="url(#f)"/><rect y="351" width="138" height="5" fill="url(#e)" opacity=".3"/><path d="m130 356v-356l1-.09v356zm-2 0v-355l1-.23v356zm-2 0v-355l1-.23v355zm-115 0v-328l1-.24v328zm-2 0v-327l1-.23v328zm-2 0v-327l1-.23v327z" fill="#252e00"/><path d="m8.5 356v-317l121-29v346" fill="none" opacity=".3" stroke="#fff" stroke-dasharray="3 3"/><g id="star"><g id="a"><path d="m69 209 5 13-5 7-5-7z" fill="url(#d)"/><path d="m68 210-.3.8h1.5l-.3-.8zm-.6 1.5-.3.8h2.7l-.3-.8zm-.6 1.5-.3.8h3.8l-.3-.8zm-.6 1.5-.3.8h5l-.3-.8zm-.6 1.5-.3.8h6.2l-.3-.8zm-.6 1.5-.3.8h7.3l-.3-.8zm-.6 1.5-.3.8h8.5l-.3-.8zm-.6 1.5-.3.8h9.6l-.3-.8zm-.3 1.5.5.8h8.6l.5-.8zm1.1 1.5.5.8h6.4l.5-.8zm1.1 1.5.5.8h4.3l.5-.8z" opacity=".2"/><path d="m69 209 5 13-5 7-5-7z" fill="none" stroke="url(#c)" stroke-width=".4"/></g><use transform="rotate(-72,69,229)" xlink:href="#a"/><use transform="rotate(216 69 229)" xlink:href="#a"/><use transform="rotate(144,69,229)" xlink:href="#a"/><use transform="rotate(72,69,229)" xlink:href="#a"/><circle cx="69" cy="229" r="3.5" fill="url(#b)"/></g><use transform="translate(0 57)" xlink:href="#star"/><use transform="translate(0-57)" xlink:href="#star"/></svg>
